<svg xmlns="http://www.w3.org/2000/svg" viewBox="0 0 180 210"><path fill="#153860" d="M90 5 160 25l-8 105c-4 38-25 57-62 73-37-16-58-35-62-73L20 25 90 5Z"/><path fill="#d6a62c" d="M90 17 148 34l-7 93c-3 31-19 47-51 61-32-14-48-30-51-61l-7-93 58-17Z"/><path fill="#fff2d1" d="M90 29 136 43l-6 79c-2 25-14 37-40 49-26-12-38-24-40-49l-6-79 46-14Z"/><path fill="#245b32" d="M47 111c17-17 31-24 43-24s26 7 43 24c-13-5-28-8-43-8s-30 3-43 8Z"/><path fill="none" stroke="#153860" stroke-width="8" stroke-linecap="round" d="M59 82c12-12 23-12 31 0m0 0c8-12 19-12 31 0M66 91c8 10 17 10 24 0m0 0c7 10 16 10 24 0"/><text x="90" y="63" text-anchor="middle" font-family="Arial" font-size="18" font-weight="800" fill="#153860">RT 01</text><text x="90" y="183" text-anchor="middle" font-family="Arial" font-size="10" font-weight="800" fill="#fff">RW 04</text></svg>