<svg xmlns="http://www.w3.org/2000/svg" viewBox="0 0 320 360" role="img" aria-labelledby="title desc">
<title id="title">Logo RT 01 RW 04 Desa Pegandekan</title><desc id="desc">Lambang RT 01 RW 04 Desa Pegandekan Kecamatan Kemangkon</desc>
<defs><linearGradient id="gold" x1="0" x2="1"><stop stop-color="#B97910"/><stop offset=".5" stop-color="#F2C64D"/><stop offset="1" stop-color="#B97910"/></linearGradient><linearGradient id="navy" x1="0" x2="1"><stop stop-color="#0B2B4E"/><stop offset=".5" stop-color="#153F68"/><stop offset="1" stop-color="#0A2947"/></linearGradient><linearGradient id="green" x1="0" x2="1"><stop stop-color="#163F25"/><stop offset="1" stop-color="#2F6A3D"/></linearGradient></defs>
<!-- shield -->
<path fill="url(#gold)" d="M160 8 292 43l-14 166c-7 63-42 99-118 132-76-33-111-69-118-132L28 43 160 8Z"/>
<path fill="url(#navy)" d="M160 18 281 50l-13 154c-6 57-37 89-108 121-71-32-102-64-108-121L39 50 160 18Z"/>
<path fill="#FFF7E5" d="M160 35 263 63l-11 137c-5 48-30 75-92 104-62-29-87-56-92-104L57 63l103-28Z"/>
<!-- rice stalks -->
<g fill="#E6B52F" stroke="#A87916" stroke-width="1.5"><ellipse cx="53" cy="116" rx="7" ry="16" transform="rotate(30 53 116)"/><ellipse cx="47" cy="137" rx="7" ry="16" transform="rotate(30 47 137)"/><ellipse cx="45" cy="158" rx="7" ry="16" transform="rotate(30 45 158)"/><ellipse cx="51" cy="179" rx="7" ry="16" transform="rotate(30 51 179)"/><ellipse cx="267" cy="116" rx="7" ry="16" transform="rotate(-30 267 116)"/><ellipse cx="273" cy="137" rx="7" ry="16" transform="rotate(-30 273 137)"/><ellipse cx="275" cy="158" rx="7" ry="16" transform="rotate(-30 275 158)"/><ellipse cx="269" cy="179" rx="7" ry="16" transform="rotate(-30 269 179)"/></g>
<path d="M58 202Q39 151 31 108M262 202Q281 151 289 108" fill="none" stroke="#3B6B2F" stroke-width="8" stroke-linecap="round"/>
<path d="M54 210Q88 181 160 184Q232 181 266 210v20H54Z" fill="#83A66B"/>
<path d="M78 214l14-14 14 14m26 0 14-17 14 17m26 0 14-14 14 14" fill="none" stroke="#315B35" stroke-width="4"/>
<!-- title -->
<text x="160" y="95" text-anchor="middle" font-family="Georgia,serif" font-size="39" font-weight="900" fill="#12375F">RT 01</text>
<path d="M78 106h62m20 0h62" stroke="url(#gold)" stroke-width="4"/><circle cx="160" cy="106" r="6" fill="#D6A62C"/>
<text x="160" y="137" text-anchor="middle" font-family="Georgia,serif" font-size="34" font-weight="900" fill="#245B32">RW 04</text>
<!-- handshake -->
<path fill="#173C65" d="M52 166l34-29 38 5 18 18-29 25-35-2Z"/><path fill="#245B32" d="M268 166l-34-29-38 5-18 18 29 25 35-2Z"/>
<path fill="#F4C58C" stroke="#A66E38" stroke-width="2" d="m102 153 28-14 25 8 19-8 28 14-20 18-16-6-13 11-13-9-16 6-22-20Z"/>
<path fill="#F8D29D" stroke="#A66E38" stroke-width="2" d="M117 164c10-8 18-8 25-2l18 14c5 4 4 11-2 14-4 2-8 1-11-2l-12-9c5 6 3 12-2 14-4 2-8 1-11-2l-15-13c-5-5-5-10 0-14Z"/>
<path fill="#E9B77B" stroke="#A66E38" stroke-width="2" d="M203 164c-10-8-18-8-25-2l-18 14c-5 4-4 11 2 14 4 2 8 1 11-2l12-9c-5 6-3 12 2 14 4 2 8 1 11-2l15-13c5-5 5-10 0-14Z"/>
<!-- ribbon -->
<path fill="url(#navy)" stroke="url(#gold)" stroke-width="5" d="M15 248q20-12 39 0h212q19-12 39 0l-13 45q-17 11-35 0H63q-18 11-35 0Z"/>
<text x="160" y="279" text-anchor="middle" font-family="Georgia,serif" font-size="25" font-weight="900" fill="#FFF7E5">DESA PEGANDEKAN</text>
<path fill="url(#gold)" stroke="#A87916" stroke-width="3" d="M53 300h214l-12 39H65Z"/>
<text x="160" y="326" text-anchor="middle" font-family="Georgia,serif" font-size="14" font-weight="900" fill="#245B32">KECAMATAN KEMANGKON</text>
</svg>